<mxfile host="Electron" modified="2023-05-22T03:46:16.096Z" agent="Mozilla/5.0 (Macintosh; Intel Mac OS X 10_15_7) AppleWebKit/537.36 (KHTML, like Gecko) draw.io/21.2.1 Chrome/112.0.5615.87 Electron/24.1.2 Safari/537.36" etag="pADKb77GPSRfDCFOmhwb" version="21.2.1" type="device">
  <diagram name="第 1 页" id="3pmu5mdlHhyu9moLcKJr">
    <mxGraphModel dx="900" dy="674" grid="1" gridSize="10" guides="1" tooltips="1" connect="1" arrows="1" fold="1" page="1" pageScale="1" pageWidth="827" pageHeight="1169" math="0" shadow="0">
      <root>
        <mxCell id="0" />
        <mxCell id="1" parent="0" />
        <mxCell id="P94F-uNf9Wzux4fFWeLc-1" value="" style="rounded=1;whiteSpace=wrap;html=1;fillColor=#f5f5f5;fontColor=#333333;strokeColor=#666666;" vertex="1" parent="1">
          <mxGeometry x="100" y="380" width="360" height="240" as="geometry" />
        </mxCell>
        <mxCell id="P94F-uNf9Wzux4fFWeLc-9" value="" style="rounded=0;whiteSpace=wrap;html=1;fillColor=#cce5ff;strokeColor=#36393d;" vertex="1" parent="1">
          <mxGeometry x="210" y="440" width="230" height="160" as="geometry" />
        </mxCell>
        <mxCell id="P94F-uNf9Wzux4fFWeLc-2" value="" style="rounded=0;whiteSpace=wrap;html=1;fillColor=#fff2cc;strokeColor=#d6b656;" vertex="1" parent="1">
          <mxGeometry x="260" y="480" width="180" height="120" as="geometry" />
        </mxCell>
        <mxCell id="P94F-uNf9Wzux4fFWeLc-4" value="" style="rounded=0;whiteSpace=wrap;html=1;fillColor=#ffcc99;strokeColor=#FFD966;" vertex="1" parent="1">
          <mxGeometry x="320" y="520" width="120" height="80" as="geometry" />
        </mxCell>
        <mxCell id="P94F-uNf9Wzux4fFWeLc-5" value="Spring-MVC" style="rounded=0;whiteSpace=wrap;html=1;fillColor=#d5e8d4;strokeColor=#82b366;" vertex="1" parent="1">
          <mxGeometry x="360" y="560" width="80" height="40" as="geometry" />
        </mxCell>
        <mxCell id="P94F-uNf9Wzux4fFWeLc-7" value="War" style="rounded=0;whiteSpace=wrap;html=1;fillColor=#ffcd28;strokeColor=#d79b00;gradientColor=#ffa500;" vertex="1" parent="1">
          <mxGeometry x="320" y="520" width="40" height="30" as="geometry" />
        </mxCell>
        <mxCell id="P94F-uNf9Wzux4fFWeLc-8" value="Tomcat" style="rounded=0;whiteSpace=wrap;html=1;fillColor=#fff2cc;strokeColor=#d6b656;gradientColor=#ffd966;" vertex="1" parent="1">
          <mxGeometry x="260" y="480" width="60" height="30" as="geometry" />
        </mxCell>
        <mxCell id="P94F-uNf9Wzux4fFWeLc-10" value="JVM" style="rounded=0;whiteSpace=wrap;html=1;fillColor=#dae8fc;gradientColor=#7ea6e0;strokeColor=#6c8ebf;" vertex="1" parent="1">
          <mxGeometry x="210" y="440" width="50" height="30" as="geometry" />
        </mxCell>
        <mxCell id="P94F-uNf9Wzux4fFWeLc-13" value="Machine" style="rounded=1;whiteSpace=wrap;html=1;fillColor=#f5f5f5;gradientColor=#b3b3b3;strokeColor=#666666;" vertex="1" parent="1">
          <mxGeometry x="110" y="390" width="90" height="40" as="geometry" />
        </mxCell>
      </root>
    </mxGraphModel>
  </diagram>
</mxfile>
